<svg width="39" height="39" viewBox="0 0 39 39" fill="none" xmlns="http://www.w3.org/2000/svg">
<path d="M32.81 17H17.1C16.5 17 16.01 16.51 16.01 15.93V14.08C16.01 13.49 16.51 13.01 17.1 13.01H32.91C33.51 13.01 34 13.5 34 14.08V15.93C33.9 16.52 33.4 17 32.81 17Z" fill="#6ADDB2"></path>
<path d="M5.1 25C4.5 25 4 24.5 4 23.9V22C4 21.5 4.5 21 5.1 21H20.96C21.56 21 22.06 21.5 22.06 22.1V24C21.96 24.5 21.46 25 20.86 25H5.1Z" fill="#6ADDB2"></path>
<path d="M9.95 32C11.05 32 11.95 31.1 11.95 30C11.95 28.9 11.05 28 9.95 28C8.85 28 7.95 28.9 7.95 30C7.95 31.1 8.85 32 9.95 32Z" fill="#6ADDB2"></path>
<path d="M27.95 10C29.05 10 29.95 9.1 29.95 8C29.95 6.9 29.05 6 27.95 6C26.85 6 25.95 6.9 25.95 8C25.95 9.1 26.85 10 27.95 10Z" fill="#6ADDB2"></path>
<path d="M18.95 31C17.85 31 16.75 30.8 15.75 30.5C15.25 30.4 14.75 30.6 14.55 31.1L13.85 33C13.65 33.5 13.95 34.1 14.55 34.3C15.95 34.8 17.45 35 18.95 35C25.45 35 31.05 31.1 33.55 25.5C33.75 25 33.55 24.3 32.95 24.1L31.05 23.4C30.55 23.2 30.05 23.4 29.85 23.9C27.95 28.1 23.85 31 18.95 31Z" fill="#6ADDB2"></path>
<path d="M18.95 7C20.05 7 21.15 7.2 22.15 7.5C22.65 7.6 23.15 7.4 23.35 6.9L24.05 5C24.25 4.5 23.95 3.9 23.35 3.7C21.95 3.2 20.45 3 18.95 3C12.45 3 6.85 6.9 4.35 12.5C4.15 13 4.35 13.7 4.95 13.9L6.85 14.6C7.35 14.8 7.85 14.6 8.05 14.1C9.95 9.9 14.05 7 18.95 7Z" fill="#6ADDB2"></path>
</svg>