<svg xmlns="http://www.w3.org/2000/svg" viewBox="0 0 65 65.49">
    <defs>
        <style>.cls-1{fill:#f2617a;}.cls-2{fill:#003d4f;}</style>
    </defs>
    <g id="Layer_2" data-name="Layer 2">
        <g id="Layer_1-2" data-name="Layer 1">
            <polygon class="cls-1" points="27.21 0 0 53.41 12.64 53.41 39.86 0 27.21 0"/>
            <path class="cls-2"
                  d="M52.27,46.84a4.36,4.36,0,0,1-3-.74,4.35,4.35,0,0,1-.74-3V27.27h4.53l3-5.89H48.55v-9.6H39.76v9.6H35.35l-3,5.88h7.4V46.16a8.14,8.14,0,0,0,.8,3.9,5.81,5.81,0,0,0,2.2,2.3A9.34,9.34,0,0,0,46,53.44a25.16,25.16,0,0,0,3.87.28c.87,0,1.76,0,2.66-.06A21.4,21.4,0,0,0,55,53.41V46.59a10.42,10.42,0,0,1-1.3.19C53.24,46.82,52.76,46.84,52.27,46.84Z"/>
            <polygon class="cls-2"
                     points="91.9 21.39 86.01 43.06 85.89 43.06 80.44 21.39 71.89 21.39 66.56 43.13 66.44 43.13 60.56 21.39 54.83 32.62 61.43 53.41 70.53 53.41 75.98 31.91 76.1 31.91 81.8 53.41 90.85 53.41 100.94 21.39 91.9 21.39"/>
        </g>
    </g>
</svg>
